HIERARCHY
ROOT hip
{
	OFFSET 0.000000 0.000000 0.000000 
	CHANNELS 6 Xposition Yposition Zposition Xrotation Zrotation Yrotation
	JOINT abdomen
	{
		OFFSET 0.000000 3.402643 0.000000 
		CHANNELS 3 Xrotation Zrotation Yrotation
		JOINT chest
		{
			OFFSET 0.000000 8.438565 -0.680529 
			CHANNELS 3 Xrotation Zrotation Yrotation
			JOINT neck
			{
				OFFSET 0.000000 10.207942 -0.272212 
				CHANNELS 3 Xrotation Zrotation Yrotation
				JOINT head
				{
					OFFSET 0.000000 3.130431 0.000000 
					CHANNELS 3 Xrotation Zrotation Yrotation
					End Site
					{
						OFFSET 0.000000 3.130435 0.000000 
					}
				}
			}
			JOINT lCollar
			{
				OFFSET 3.470700 6.669187 -0.816635 
				CHANNELS 3 Yrotation Zrotation Xrotation
				JOINT lShldr
				{
					OFFSET 3.198488 0.000000 0.000000 
					CHANNELS 3 Zrotation Yrotation Xrotation
					JOINT lForeArm
					{
						OFFSET 10.139888 0.000000 0.000000 
						CHANNELS 3 Yrotation Zrotation Xrotation
						JOINT lHand
						{
							OFFSET 8.370511 0.000000 0.000000 
							CHANNELS 3 Zrotation Yrotation Xrotation
							End Site
							{
								OFFSET 4.083176 0.000000 0.000000 
							}
						}
					}
				}
			}
			JOINT rCollar
			{
				OFFSET -3.470700 6.669187 -0.816635 
				CHANNELS 3 Yrotation Zrotation Xrotation
				JOINT rShldr
				{
					OFFSET -3.198488 0.000000 0.000000 
					CHANNELS 3 Zrotation Yrotation Xrotation
					JOINT rForeArm
					{
						OFFSET -10.139888 0.000000 0.000000 
						CHANNELS 3 Yrotation Zrotation Xrotation
						JOINT rHand
						{
							OFFSET -8.370511 0.000000 0.000000 
							CHANNELS 3 Zrotation Yrotation Xrotation
							End Site
							{
								OFFSET -4.083176 0.000000 0.000000 
							}
						}
					}
				}
			}
		}
	}
	JOINT lThigh
	{
		OFFSET 5.308129 -1.633274 1.361059 
		CHANNELS 3 Xrotation Zrotation Yrotation
		JOINT lShin
		{
			OFFSET -2.041588 -20.007561 0.000000 
			CHANNELS 3 Xrotation Zrotation Yrotation
			JOINT lFoot
			{
				OFFSET 0.000000 -19.190928 -1.224953 
				CHANNELS 3 Xrotation Yrotation Zrotation
				End Site
				{
					OFFSET 0.000000 -2.449906 4.627600 
				}
			}
		}
	}
	JOINT rThigh
	{
		OFFSET -5.308129 -1.633274 1.361059 
		CHANNELS 3 Xrotation Zrotation Yrotation
		JOINT rShin
		{
			OFFSET 2.041588 -20.007561 0.000000 
			CHANNELS 3 Xrotation Zrotation Yrotation
			JOINT rFoot
			{
				OFFSET 0.000000 -19.190928 -1.224953 
				CHANNELS 3 Xrotation Yrotation Zrotation
				End Site
				{
					OFFSET 0.000000 -2.449906 4.627600 
				}
			}
		}
	}
}
MOTION
Frames: 16
Frame Time: 0.011111
21.561422 49.335518 2.574695 -3.099988 -2.129670 -89.667267 13.724105 -4.884717 0.904117 -10.616047 -2.556500 0.387721 -8.786225 1.355958 -1.221145 14.137618 1.680554 -2.117241 -4.921947 -9.476123 -0.539306 -54.417801 -31.566191 34.248127 -70.160934 9.136387 17.160795 8.524705 12.647240 -54.661510 3.322233 12.489151 -0.342371 61.569927 24.599060 29.817068 70.877655 -9.052658 17.527443 -8.534408 -12.637552 29.622902 -10.942866 10.874062 3.722888 42.784382 -4.436088 -6.427973 -38.682636 3.891832 2.713071 -12.811764 -16.532513 2.316190 45.753590 4.162692 6.723547 -34.370201 -6.292688 -2.864652 
21.548521 49.334526 2.575688 -3.117882 -2.070507 -89.648186 13.588127 -4.896196 0.885734 -10.577005 -2.545662 0.377765 -8.716976 1.069340 -1.165357 13.775465 2.321059 -2.004545 -4.921947 -9.476123 -0.539306 -54.455257 -31.569422 34.246277 -69.992485 9.155033 17.073408 8.524705 12.647240 -54.895882 3.322233 12.489151 -0.342371 61.635441 24.505560 29.809694 70.930923 -9.046998 17.553751 -8.534408 -12.637552 29.671732 -10.986235 10.849436 3.684169 42.764538 -4.442678 -6.419033 -38.832455 3.851876 2.723562 -12.856698 -16.537722 2.340523 45.762730 4.162714 6.743714 -34.467529 -6.361511 -2.926345 
21.548189 49.333202 2.572711 -3.176673 -2.050777 -89.647537 13.580945 -4.989107 0.856287 -10.606788 -2.476418 0.379484 -8.706494 0.825260 -1.147530 13.648173 2.777562 -1.973548 -4.921947 -9.476123 -0.539306 -54.483215 -31.493305 34.279755 -69.982300 9.157119 17.072145 8.524705 12.647240 -54.944717 3.322233 12.489151 -0.342371 61.593811 24.424408 29.854176 70.982605 -9.038677 17.579174 -8.534408 -12.637552 29.759623 -10.983231 10.777835 3.617249 42.754250 -4.452495 -6.412109 -38.804157 3.845373 2.704393 -12.897406 -16.598291 2.385700 45.762730 4.162712 6.743713 -34.527180 -6.233035 -2.865886 
21.552494 49.334198 2.571388 -3.091820 -2.032930 -89.700409 13.599279 -4.915761 0.880019 -10.577727 -2.437979 0.383996 -8.969892 0.867069 -1.228572 13.920451 2.639366 -2.137177 -4.921947 -9.476123 -0.539306 -54.450508 -31.529749 34.295567 -69.973686 9.161911 17.070192 8.524705 12.647240 -54.807999 3.322233 12.489151 -0.342371 61.529896 24.498432 29.939690 70.952515 -9.045340 17.565493 -8.534408 -12.637552 30.023294 -11.011072 10.864171 3.593892 42.744640 -4.445844 -6.418486 -38.841393 3.746257 2.671013 -12.916924 -16.471209 2.488685 45.772533 4.162730 6.744557 -34.512054 -6.263289 -2.888923 
21.552494 49.334858 2.570065 -3.083552 -2.023930 -89.728119 13.599523 -4.929485 0.887604 -10.568084 -2.418729 0.386473 -9.174647 0.872512 -1.293093 14.066088 2.646180 -2.248734 -4.921947 -9.476123 -0.539306 -54.421265 -31.537043 34.345783 -69.951836 9.162721 17.058603 8.524705 12.647240 -54.778702 3.322233 12.489151 -0.342371 61.538700 24.508821 29.968712 70.950951 -9.042788 17.566120 -8.534408 -12.637552 30.189310 -11.012963 10.866233 3.564725 42.734821 -4.445821 -6.417630 -38.864941 3.700861 2.645698 -12.953377 -16.448719 2.540077 45.773396 4.159868 6.724110 -34.488243 -6.295085 -2.887712 
21.553150 49.336514 2.569072 -3.094674 -2.005158 -89.757286 13.609418 -4.973099 0.895247 -10.568158 -2.410517 0.397577 -9.389248 0.915810 -1.364210 14.211855 2.617459 -2.375879 -4.921947 -9.476123 -0.539306 -54.373295 -31.542719 34.396923 -69.940163 9.161443 17.046728 8.524705 12.647240 -54.739639 3.322233 12.489151 -0.342371 61.557095 24.519854 29.987690 70.939423 -9.042023 17.555691 -8.534408 -12.637552 30.345564 -11.023166 10.847186 3.525923 42.724670 -4.445797 -6.426443 -38.883385 3.718342 2.649458 -12.996099 -16.453003 2.542424 45.792149 4.162764 6.746245 -34.492760 -6.326383 -2.913099 
21.552822 49.338829 2.567750 -3.115167 -1.995998 -89.781204 13.619090 -5.010997 0.913607 -10.568168 -2.411964 0.407235 -9.545224 0.905538 -1.405581 14.260213 2.692201 -2.437259 -4.921947 -9.476123 -0.539306 -54.315964 -31.547598 34.448521 -69.929962 9.163511 17.045462 8.524705 12.647240 -54.710335 3.322233 12.489151 -0.342371 61.595474 24.522446 29.986586 70.919296 -9.046859 17.553072 -8.534408 -12.637552 30.462753 -11.025024 10.819921 3.507502 42.705696 -4.445761 -6.405395 -38.890720 3.743838 2.671593 -13.011153 -16.467489 2.555365 45.801952 4.162786 6.747090 -34.469078 -6.352665 -2.919358 
21.551828 49.341473 2.566427 -3.135189 -1.976857 -89.796570 13.619094 -5.057778 0.929107 -10.568177 -2.413409 0.416893 -9.593719 0.824030 -1.412709 14.142436 2.948024 -2.451070 -4.921947 -9.476123 -0.539306 -54.250427 -31.541954 34.495941 -69.918289 9.162221 17.035141 8.524705 12.647240 -54.700569 3.322233 12.489151 -0.342371 61.643448 24.525684 29.975439 70.897690 -9.048487 17.539803 -8.534408 -12.637552 30.492048 -11.020209 10.785439 3.488158 42.685707 -4.445940 -6.413442 -38.903759 3.810903 2.728802 -13.051560 -16.488415 2.578783 45.792671 4.169760 6.720044 -34.458885 -6.363043 -2.903075 
21.549185 49.344776 2.565434 -3.154936 -1.957522 -89.804970 13.609115 -5.091141 0.939354 -10.587597 -2.432584 0.414830 -9.525062 0.654005 -1.372862 13.859797 3.387722 -2.367719 -4.921947 -9.476123 -0.539306 -54.195408 -31.527401 34.537792 -69.897896 9.166336 17.032616 8.524705 12.647240 -54.710335 3.322233 12.489151 -0.342371 61.684212 24.499060 29.964565 70.877655 -9.052658 17.527443 -8.534408 -12.637552 30.452982 -11.033754 10.760154 3.469759 42.665867 -4.452512 -6.403729 -38.905357 3.897861 2.790310 -13.079082 -16.515911 2.572946 45.801952 4.162786 6.747090 -34.474556 -6.321215 -2.895621 
21.545876 49.348087 2.565103 -3.154998 -1.928388 -89.810883 13.579991 -5.108803 0.933969 -10.597305 -2.442172 0.413803 -9.378369 0.429519 -1.313403 13.480594 3.923129 -2.236861 -4.921947 -9.476123 -0.539306 -54.142681 -31.493429 34.555454 -69.877586 9.169804 17.020346 8.524705 12.647240 -54.739639 3.322233 12.489151 -0.342371 61.715382 24.471790 29.963739 70.867577 -9.055057 17.526136 -8.534408 -12.637552 30.374859 -11.049608 10.746530 3.449475 42.646435 -4.445850 -6.409261 -38.920921 3.948102 2.809862 -13.122523 -16.520699 2.585047 45.801952 4.162782 6.747089 -34.502979 -6.262777 -2.875882 
21.542238 49.351727 2.565103 -3.135487 -1.889550 -89.817924 13.550233 -5.085705 0.931552 -10.616724 -2.461349 0.411759 -9.222134 0.225798 -1.248533 13.092149 4.402365 -2.122358 -4.921947 -9.476123 -0.539306 -54.109829 -31.451342 34.547558 -69.857185 9.173893 17.017822 8.524705 12.647240 -54.768932 3.322233 12.489151 -0.342371 61.737751 24.434132 29.982718 70.867577 -9.055057 17.526136 -8.534408 -12.637552 30.277201 -11.081273 10.758824 3.429148 42.646435 -4.445849 -6.409261 -38.938560 3.952261 2.850685 -13.138853 -16.497633 2.605522 45.773201 4.162733 6.725236 -34.509502 -6.215755 -2.862538 
21.538599 49.355698 2.566096 -3.096512 -1.850853 -89.829155 13.500577 -5.056112 0.940134 -10.636076 -2.490186 0.408294 -9.114847 0.107478 -1.198831 12.781594 4.712812 -2.046766 -4.921947 -9.476123 -0.539306 -54.076958 -31.409264 34.544758 -69.835396 9.173966 16.996508 8.524705 12.647240 -54.798229 3.322233 12.489151 -0.342371 61.759327 24.406212 29.995968 70.866112 -9.051856 17.517025 -8.534408 -12.637552 30.208843 -11.128913 10.786858 3.377769 42.625786 -4.462254 -6.403890 -38.978573 3.950423 2.839302 -13.182750 -16.464151 2.615395 45.772308 4.155906 6.761410 -34.528702 -6.224106 -2.858839 
21.534630 49.359665 2.567088 -3.067315 -1.802419 -89.842262 13.450531 -5.007510 0.953189 -10.655359 -2.528687 0.403417 -9.085553 0.098462 -1.197168 12.586931 4.839481 -2.017342 -4.921947 -9.476123 -0.539306 -54.033581 -31.376089 34.542412 -69.825188 9.175998 16.995247 8.524705 12.647240 -54.807999 3.322233 12.489151 -0.342371 61.800892 24.369854 29.994865 70.856033 -9.054250 17.515717 -8.534408 -12.637552 30.160015 -11.168881 10.807347 3.337034 42.625782 -4.462255 -6.403891 -39.018986 3.939610 2.832340 -13.201530 -16.424030 2.614697 45.743771 4.153044 6.738221 -34.501537 -6.213199 -2.836131 
21.530661 49.363636 2.567750 -3.038193 -1.763861 -89.859802 13.400393 -4.992938 0.975852 -10.655032 -2.578418 0.405921 -9.114873 0.174975 -1.209656 12.469555 4.819214 -2.036392 -4.921947 -9.476123 -0.539306 -53.979694 -31.351839 34.554989 -69.823601 9.173264 16.994387 8.524705 12.647240 -54.807999 3.322233 12.489151 -0.342371 61.851257 24.343880 29.993488 70.845963 -9.056641 17.514408 -8.534408 -12.637552 30.160015 -11.215194 10.834047 3.305054 42.625996 -4.455639 -6.411137 -39.048218 3.936804 2.843684 -13.239501 -16.393780 2.616035 45.733418 4.155842 6.748378 -34.477901 -6.235262 -2.851927 
21.526691 49.367607 2.566757 -3.018799 -1.705910 -89.883316 13.350453 -4.987833 0.996222 -10.654837 -2.608829 0.411287 -9.173450 0.258920 -1.233616 12.381203 4.781328 -2.067063 -4.921947 -9.476123 -0.539306 -53.916443 -31.326782 34.573116 -69.814980 9.178025 16.993988 8.524705 12.647240 -54.807999 3.322233 12.489151 -0.342371 61.901623 24.317911 29.982351 70.825897 -9.060775 17.502050 -8.534408 -12.637552 30.199074 -11.264898 10.854505 3.293465 42.645149 -4.465424 -6.406932 -39.095104 3.953399 2.872640 -13.274990 -16.370092 2.657584 45.703747 4.179443 6.716337 -34.436012 -6.256776 -2.842051 
21.523384 49.371902 2.564111 -3.009088 -1.667580 -89.910851 13.289414 -4.994521 1.054085 -10.644875 -2.640744 0.425864 -9.222258 0.314118 -1.252974 12.273413 4.782519 -2.092276 -4.921947 -9.476123 -0.539306 -53.868488 -31.332493 34.614525 -69.803291 9.176680 16.982126 8.524705 12.647240 -54.798229 3.322233 12.489151 -0.342371 61.951996 24.291943 29.961451 70.814346 -9.059948 17.491632 -8.534408 -12.637552 30.257669 -11.292512 10.852743 3.302302 42.616173 -4.455615 -6.410280 -39.082390 3.976243 2.903572 -13.315620 -16.352482 2.678771 45.703876 4.162826 6.738748 -34.427956 -6.298979 -2.886109 
